<?xml version="1.0" encoding="utf-8"?>
<!-- Generator: Adobe Illustrator 16.0.0, SVG Export Plug-In . SVG Version: 6.00 Build 0)  -->
<!DOCTYPE svg PUBLIC "-//W3C//DTD SVG 1.1//EN" "http://www.w3.org/Graphics/SVG/1.1/DTD/svg11.dtd">
<svg version="1.1" id="Layer_1" xmlns="http://www.w3.org/2000/svg" xmlns:xlink="http://www.w3.org/1999/xlink" x="0px" y="0px"
	 width="595.275px" height="841.89px" viewBox="0 0 595.275 841.89" enable-background="new 0 0 595.275 841.89"
	 xml:space="preserve">
<g id="Слой_x0020_1">
	<g id="_2128766996816">
		<path fill="#120200" d="M316.999,526.648c2.012,8.533,2.154,13.438,0.227,21.998c-1.814,8.051-1.871,12.813-2.948,21.004
			c-2.098,15.902-7.683,24.633-14.627,32.713c20.154-5.16,21.628-28.291,19.843-46.178c5.158-4.279,4.847-6.377,4.818-15.307
			C324.283,531.439,324.368,529.257,316.999,526.648z M433.105,374.485v-4.564c-0.51-2.919-1.843-5.641-2.778-8.276
			c-3.288-9.128,5.783-7.626-6.491-17.122c-2.721-2.098-6.265-14.683-26.532-19.417c-16.781-3.94-29.451,9.1-32.684,11.226
			c-4.677,3.089-3.6,0.057-10.715,1.7c-2.296-9.893-4.195-12.047-11.111-16.668c3.288-14.116,3.175-22.138-2.75-34.752
			c-19.559-41.727-77.244-70.441-112.819-41.925c-21.316,17.093-50.202,66.473-30.331,96.123l-5.896,8.022
			c-3.628,2.522-9.808,2.947-16.753,9.637c-6.35,6.123-12.076,16.3-12.076,28.205c0,24.378,6.265,22.337,8.703,30.047
			c2.098,6.634-4.762,9.781,4.394,17.972c5.839,5.215,1.587-0.256,4.592,7.938c5.726,15.619,24.576,11.48,36.057,6.123
			c4.422-2.07,8.958-5.443,12.954-6.492c-5.272,10.941,0.17,36.057,2.722,44.646c2.607,8.844-5.528,21.4-5.528,41.498
			c0,39.459,29.537,37.9,33.364,36.113c-1.729,7.428-11.82,30.219,7.767,40.877c5.839,3.146,57.543,14.172,57.543-35.293
			c0-6.803-3.827-4.932,0.312-12.104c2.041-3.6,1.304,0.313,3.062-5.385c1.474-4.877,0.793-11.906,0.793-17.264
			c0-15.846-26.276-17.49-34.752-19.445c1.105-0.766,0.68-0.68,2.693-1.502l8.958-2.154c4.365-1.191,7.285-2.949,10.602-4.678
			c0.51,6.15,1.842,5.498,5.584,8.305c5.641,4.281,2.693,1.957,5.557,8.334c4.875,10.941,30.188,31.551,53.008,15.563
			c9.779-6.889,3.061-3.629,16.554-11.281c40.705-23.104,35.149-97.994-16.81-94.422c-18.34,1.246,0.907-11.283-34.725-11.283
			c-1.304-5.64-4.139-9.694-6.944-13.889c4.195-6.236,7.823-7.88,13.351-11.65c1.078-0.737,1.446-0.992,2.438-1.729
			c2.892-2.211,0.651-0.51,2.268-1.898c5.244,1.898-0.113-0.17,3.515,2.069c17.915,11.111,14.23-0.964,23.981,3.656
			c27.298,12.926,30.416-7.398,34.412-10.517c3.203-2.522,4.649-1.219,9.411-5.896C431.149,379.871,432.624,377.093,433.105,374.485
			z M262.517,569.933c-1.814,14.287-2.324,26.137,9.496,30.586c14.173,5.33,25.229-0.793,31.72-9.75
			c7.455-10.262,6.774-22.564,8.929-35.547c2.184-13.209,7.853-29.48-7.682-32.258c1.672,11.877,4.365,22.195-8.249,37.189
			C280.46,579.458,269.858,571.208,262.517,569.933z M412.951,500.626c3.118-28.063-42.576-37.955-66.188,19.248
			c-9.837,23.867,18.936,25.059,34.554,13.719C392.259,525.685,411.25,515.99,412.951,500.626z M416.494,492.179
			c5.5-17.518-33.562-40.762-60.973-5.244c-7.626,9.865-20.579,32.883-14.202,44.221c1.275-2.551,0.681-8.107,3.997-14.145
			c2.324-4.225,3.969-6.379,6.463-11.566C369.779,468.283,406.432,466.158,416.494,492.179z M416.438,477.013
			c0.143-0.311,0.283-1.133,0.313-0.963c0.028,0.199,0.255-0.766,0.283-0.963c0.766-5.783,0.113,4.619,0.255-2.098
			c0.624-27.186-45.949-63.043-78.208,8.617c-8.674,19.246-12.075,19.02-6.235,41.555l6.235-12.359
			c3.005-4.988,3.714-7.426,6.265-13.18c4.592-10.318,9.581-16.441,16.242-22.648C375.421,462.103,398.892,457.087,416.438,477.013z
			 M248.315,404.362c-8.05,14.286-14.23,68.911,11.594,55.219c9.751-5.188,7.71-18.482,4.28-29.027
			C258.576,413.434,263.707,407.311,248.315,404.362z M237.203,446.656c-7.767,5.951-3.458,26.475-0.794,35.234
			c2.863,9.467,4.507,6.463,1.531,16.725c-10.092,34.752-10.035,66.33,36.878,59.754c-4.847,6.037-6.265,2.41-8.05,7.059
			c24.123,14.768,53.547-39.799,21.827-45.949l-2.126-4.707c-0.964-1.898-3.062-1.701-7.427-2.578
			c3.997-2.326,13.238-1.871,19.077-3.402c6.52-1.729,11.764-4.592,17.348-6.406l3.033-24.266
			c5.357,20.041-2.523,20.949,4.848,31.125c2.919-2.863,3.174-10.176,8.05-21.457c3.118-7.229,5.216-13.777,8.845-20.326
			c3.939-7.113,7.652-12.047,11.764-17.404c3.996-5.215,6.236-6.01,11.253-9.553c4.252-3.004,1.956-0.424,4.507-4.053
			c-15.902-15.562-36.028-4.422-44.73,5.498c-1.899,2.154-6.236,11.027-9.014,10.064c-3.43-3.658-0.284,0.707-0.851-3.545
			c-0.028-0.254,0.028-0.707-0.028-0.99c-0.028-0.256,0-0.682-0.057-0.965c-0.057-0.256-0.086-0.68-0.143-0.936
			c-1.587-5.301-7.342-3.09-9.042-25.794c-10.715-0.029-28.658,3.146-36.255,8.56c2.098,13.039,5.896,26.305-4.791,33.988
			c-4.394,3.146-12.643,3.797-18.057,0.057C240.151,459.212,239.953,452.07,237.203,446.656z M323.546,434.779l5.84-3.09
			c-0.709-9.27-3.118-16.215-12.982-14.316c-6.775,8.306-1.616,16.867,5.669,20.523c-1.984-4.166-5.442-3.543-5.272-11.736
			C320.938,430.214,318.926,431.177,323.546,434.779z M335.905,422.703c2.183,5.441-0.68,2.494,4.819,3.174
			C338.202,422.447,341.489,424.005,335.905,422.703z M301.805,405.524c-4.11,1.701-1.616,0.396-4.479,2.466
			c-13.691,9.894-18.425,7.2-33.619,4.224c-0.283,4.961,0.737,6.974,2.863,11.311c11.508-4.139,22.818-7.116,36.595-7.512
			L301.805,405.524z M244.347,402.689l-11.452-4.62c-5.527,4.592-3.345,4.535-12.813,4.733c2.296,30.671-7.229,33.421-36.085,35.546
			c4.139,4.564,6.548,15.988,31.634,3.203c4.847-2.465,11.225-4.904,13.691-8.645c5.357-8.08-2.268-16.214,7.88-15.648
			c2.183,7.257-6.265,18.992-0.907,25.824C238.422,437.925,242.787,411.591,244.347,402.689z M318.331,442.687
			c-1.786-7.852-4.054-4.252-6.662-10.998c-5.867-15.082,8.787-26.419,17.858-9.553l4.167,6.83
			c-3.203-14.542-12.5-26.021-18.736-35.007c-13.437,6.18-10.432,6.746-8.334,21.827
			C308.268,427.521,308.353,439.087,318.331,442.687z M224.674,398.154c10.545-2.977,11.65-18.482,2.778-22.422
			c-4.082,3.458-3.374,4.11-4.621,10.545c-0.595,3.118-1.304,2.977-0.595,6.803C223.455,399.969,223.398,396.453,224.674,398.154z
			 M370.007,382.11c0.17-11.396-2.297-20.296-9.156-27.27c-20.069,1.729-7.342,3.033-25.738,14.4
			c-7.059,4.365-1.305,6.009-17.83,21.997c10.941,12.897,14.824,25.568,20.891,28.091c-1.729-5.159-5.102-8.107-6.576-13.408
			c3.6-2.296,5.272-4.138,9.071-7.455c2.239-1.956,5.697-4.394,8.929-6.378C356.797,387.694,362.268,386.136,370.007,382.11z
			 M221.896,373.975c7.512-20.863-32.173-27.326-46.205-8.504c-5.868,7.881-8.788,20.126-6.832,32.287
			c2.268,14.286,7.54,16.752,14.315,23.839l-6.888-0.17c-1.333,12.245,11.027,12.784,20.636,11.395
			c10.687-1.559,17.66-5.498,19.559-14.57c-11.707,2.183-5.329,4.761-15.874,6.152c0.255-0.256,0.708-0.992,0.85-0.738
			c0.142,0.256,0.681-0.566,0.851-0.736l5.981-6.888c4.677-3.912,5.017-0.737,8.107-7.144c-2.665-11.196-11.225-7.795-18.879-12.501
			c6.718-3.43,14.996,1.814,20.098,3.969c1.871-16.327-15.817-17.093-19.531-19.332c12.331-1.729,13.323,0.596,20.75,5.188
			c2.778-18.256-15.108-14.854-21.6-18.907c9.411-3.515,14.967-1.673,21.771,4.195l2.183,1.871
			C221.329,373.493,221.641,373.805,221.896,373.975z M209.14,342.766c-6.917,0.453-8.759,1.445-11.679,5.811l13.323,1.021
			L209.14,342.766z M222.945,356.514c-2.721-10.007,2.891-6.889,0.17-12.558l-10.063-12.161
			C213.052,356.599,213.704,349.427,222.945,356.514z M416.438,383.896c9.922-3.572,14.514-12.756,7.285-24.208
			c-6.123-9.667,6.804,3.628-0.652-9.979c-1.983-3.628-1.927-2.268-5.641-4.365c-5.584-3.146-6.774-17.858-29.82-14.995
			c-18.255,2.239-18.624,12.756-19.871,14.314c-5.782-3.515-8.759-2.466-14.825-0.793l-1.984,8.164
			c2.495-0.511,3.714-1.333,4.564-1.588c9.666-2.92,24.037,14.684,15.959,38.579c-4.535-0.51,0.283-2.154-4.535-0.227
			c-6.379,2.523-1.899-0.851-3.572,4.082c15.874,1.134,15.704,2.239,22.535-11.509c3.459,4.564-0.595,8.986-0.936,13.039
			c14.485,5.896,27.894,5.33,24.379-13.775c-6.293-2.75-3.231,3.826-6.35-2.297c3.911-4.337,8.39-3.883,14.541-2.664
			C414.964,381.43,408.16,376.101,416.438,383.896z M324.737,347.754c3.345-0.708,3.713,0.482,4.875-5.414
			c0.964-5.074-0.34-17.659-3.203-22.932l-2.239-3.005c-3.005,13.861-11.339,15.647-0.283,21.628
			C322.753,344.013,321.448,342.964,324.737,347.754z M332.815,366.406c6.86-4.139,14.4-11.594,15.08-22.989
			c0.624-10.856-4.422-19.729-15.731-18.312l1.389,8.136l6.661,0.255l-6.548,3.146c-0.227,5.471-2.183,10.262-1.813,14.967
			C332.362,358.044,333.638,358.385,332.815,366.406z M303.448,303.874c-11.225-19.247-20.891-2.381-28.941,0.539l5.103-12.217
			c-5.216-3.316-24.378,0.34-29.055,4.167c4.677,6.576,4.762,3.43,6.747,9.241c-7.313-1.36-17.064-11.452-24.038,2.183
			c-4.337,8.447,0.567,5.471-5.386,9.694c-5.272,3.713-9.354,3.033-12.813,5.272c-0.368,7.285,5.244,11.594,8.929,15.959
			c8.532,10.12-2.948,10.147,3.43,28.545c3.118,9.07,13.323,1.813,8.561,26.447c4.479,1.984,8.929,4.28,14.428,6.095
			c7.852,2.607,7.115,3.939,13.776,7.143c24.548,11.906,38.551-10.517,42.349-13.464c10.432-8.079,25.002-16.866,21.997-40.479
			c-2.04-1.077-4.933-1.247-7.823-2.438c-4.139-19.615-4.904-10.545-5.981-15.307c0.766-10.857,9.553-19.305,7.087-26.391
			c-4.365-2.467-7.229,0.566-14.201-1.305C303.023,306.34,306.651,309.373,303.448,303.874z M318.671,305.036
			c-3.146-8.192-13.125-17.745-21.203-21.742c-10.12-5.017-23.698-7.2-36.595-5.045c-24.066,3.997-38.466,17.83-44.306,39.146
			c5.896,0.425,7.427-1.758,10.999-4.365c-0.482-30.841,11.849-17.065,22.479-20.381c5.754-1.814,8.447-5.357,21.855-4.366
			c10.375,0.766,5.584,2.75,14.372-1.134c4.365-1.956,9.297-2.607,14.003,0.284C311.159,294.151,298.999,306.652,318.671,305.036z
			 M247.493,278.192l2.664-1.021l23.188-3.26l3.374-0.085l6.009,0.199c5.188-16.47-8.107-28.687-24.35-27.071
			c-15.676,1.56-27.298,18.085-16.441,32.485L247.493,278.192z M331.682,320.854c3.912-0.227,4.45,0.964,6.718-3.884
			c7.371-15.817-11.196-40.563-21.004-50.796c-11.85-12.416-33.647-27.78-60.747-25.2c-50.967,4.847-77.669,97.398-48.643,98.022
			l3.657-19.332c1.616-6.18,3.571-11.169,6.151-16.328c5.159-10.29,12.188-15.392,21.515-22.28
			c-10.006-17.263-0.68-35.376,19.162-36.793c18.964-1.389,31.89,12.756,26.788,31.379c12.472,1.276,21.345,8.136,29.027,15.817
			C327.458,304.611,326.863,314.702,331.682,320.854z"/>
		<path fill="#005BAC" d="M237.203,446.656c2.75,5.414,2.948,12.557,7.597,15.732c5.414,3.74,13.663,3.09,18.057-0.057
			c10.687-7.684,6.889-20.949,4.791-33.988c7.597-5.414,25.54-8.589,36.255-8.56c1.7,22.705,7.455,20.494,9.042,25.794
			c0.057,0.256,0.086,0.68,0.143,0.936c0.057,0.283,0.028,0.709,0.057,0.965c0.057,0.283,0,0.736,0.028,0.99
			c0.566,4.252-2.579-0.113,0.851,3.545c2.777,0.963,7.114-7.91,9.014-10.064c8.702-9.92,28.828-21.06,44.73-5.498
			c-2.551,3.629-0.255,1.049-4.507,4.053c-5.017,3.543-7.257,4.338-11.253,9.553c-4.111,5.357-7.824,10.291-11.764,17.404
			c-3.629,6.549-5.727,13.098-8.845,20.326c-4.876,11.281-5.131,18.594-8.05,21.457c-7.371-10.176,0.51-11.084-4.848-31.125
			l-3.033,24.266c-5.584,1.814-10.828,4.678-17.348,6.406c-5.839,1.531-15.081,1.076-19.077,3.402
			c4.365,0.877,6.463,0.68,7.427,2.578l2.126,4.707c31.72,6.15,2.296,60.717-21.827,45.949c1.786-4.648,3.203-1.021,8.05-7.059
			c-46.914,6.576-46.97-25.002-36.878-59.754c2.976-10.262,1.332-7.258-1.531-16.725
			C233.745,473.13,229.437,452.607,237.203,446.656z"/>
		<path fill="#FCD9B5" d="M297.127,381.742l1.219-11.452c4.79,0.765,3.004,1.757,6.265-0.766c9.779-1.899,6.095-7.455,10.487-16.271
			c3.94-7.881,0.341-14.485-7.029-16.583c-4.224,5.953-2.948,8.844-9.638,11.367c-1.304-10.886,4.903-5.046,4.989-21.118
			c0.198-30.529-31.55-36.34-26.873,3.005l-14.116,2.211c-2.013-15.194-1.673-13.38-9.298-23.329
			c-14.457-2.069-19.559,5.244-18.992,19.502c0.907,21.656,10.658,13.861,11.962,27.241c-12.416-2.296-6.832-4.989-14.797-8.277
			c-1.531,3.345-4.082,7.229-2.891,12.954c0.737,3.742,1.247,3.827,3.316,5.557c0.17,0.113,2.438,1.502,2.522,1.587l1.446,1.275
			c5.726,6.634,2.892,13.635,18.17,8.136c3.401,4.507,5.187,10.885,8.447,15.363C278.391,414.085,295.03,400.422,297.127,381.742z
			 M279.609,292.195l-5.103,12.217c8.051-2.919,17.717-19.786,28.941-0.539c3.203,5.499-0.425,2.466,4.168,3.685
			c6.973,1.871,9.836-1.162,14.201,1.305c2.466,7.086-6.321,15.533-7.087,26.391c1.077,4.762,1.843-4.309,5.981,15.307
			c2.891,1.19,5.783,1.36,7.823,2.438c3.005,23.613-11.565,32.4-21.997,40.479c-3.798,2.947-17.801,25.37-42.349,13.464
			c-6.662-3.203-5.924-4.535-13.776-7.143c-5.5-1.814-9.95-4.11-14.428-6.095c4.762-24.634-5.442-17.377-8.561-26.447
			c-6.378-18.397,5.102-18.425-3.43-28.545c-3.685-4.365-9.297-8.674-8.929-15.959c3.458-2.239,7.54-1.56,12.813-5.272
			c5.953-4.224,1.049-1.247,5.386-9.694c6.974-13.635,16.725-3.543,24.038-2.183c-1.984-5.811-2.069-2.665-6.747-9.241
			C255.231,292.535,274.394,288.879,279.609,292.195z"/>
		<path fill="#E60012" d="M331.682,320.854c-4.818-6.151-4.224-16.242-17.376-29.396c-7.682-7.682-16.555-14.542-29.027-15.817
			c5.102-18.623-7.824-32.768-26.788-31.379c-19.842,1.417-29.168,19.53-19.162,36.793c-9.326,6.888-16.356,11.991-21.515,22.28
			c-2.58,5.159-4.536,10.148-6.151,16.328l-3.657,19.332c-29.027-0.624-2.325-93.175,48.643-98.022
			c27.099-2.58,48.897,12.784,60.747,25.2c9.808,10.233,28.375,34.979,21.004,50.796
			C336.132,321.817,335.594,320.627,331.682,320.854z"/>
		<path fill="#FDFDFD" d="M198.085,381.033c3.713,2.239,21.401,3.005,19.531,19.332c-5.102-2.154-13.379-7.398-20.098-3.969
			c7.654,4.706,16.214,1.305,18.879,12.501c-3.09,6.406-3.43,3.231-8.107,7.144l-5.981,6.888c-0.17,0.17-0.708,0.992-0.851,0.736
			c-0.142-0.254-0.595,0.482-0.85,0.738c10.545-1.391,4.167-3.969,15.874-6.152c-1.899,9.072-8.873,13.011-19.559,14.57
			c-9.609,1.389-21.969,0.85-20.636-11.395l6.888,0.17c-6.775-7.087-12.047-9.553-14.315-23.839
			c-1.956-12.161,0.964-24.406,6.832-32.287c14.031-18.822,53.716-12.359,46.205,8.504c-0.255-0.17-0.567-0.481-0.708-0.595
			l-2.183-1.871c-6.803-5.868-12.359-7.71-21.771-4.195c6.492,4.054,24.378,0.651,21.6,18.907
			C211.408,381.629,210.416,379.304,198.085,381.033z"/>
		<path fill="#FDFDFD" d="M408.388,353.311c-5.103-3.827-7.569-2.324-11.565,1.389c1.445,1.049-2.013,0.34,3.685,2.098
			C409.38,359.518,408.16,354.189,408.388,353.311z M391.237,346.224c6.208-0.936,9.667-0.936,9.185-6.066
			c-2.692-1.105,3.459-1.559-3.288-0.821C392.995,339.789,392.088,343.105,391.237,346.224z M387.496,338.258
			c1.786-2.353,0.425,0.228,0.822-2.834l-0.652-2.069c-5.612-1.531-6.406,1.304-4.876,6.293
			C384.576,340.044,385.342,341.093,387.496,338.258z M416.438,383.896c-8.277-7.796-1.474-2.467,1.077-8.221
			c-6.151-1.219-10.63-1.673-14.541,2.664c3.118,6.123,0.057-0.453,6.35,2.297c3.515,19.105-9.894,19.672-24.379,13.775
			c0.341-4.053,4.395-8.475,0.936-13.039c-6.831,13.748-6.661,12.643-22.535,11.509c1.673-4.933-2.807-1.559,3.572-4.082
			c4.818-1.928,0-0.283,4.535,0.227c8.078-23.896-6.293-41.499-15.959-38.579c-0.851,0.255-2.069,1.077-4.564,1.588l1.984-8.164
			c6.066-1.673,9.043-2.722,14.825,0.793c1.247-1.559,1.616-12.075,19.871-14.314c23.046-2.863,24.236,11.849,29.82,14.995
			c3.714,2.098,3.657,0.737,5.641,4.365c7.456,13.606-5.471,0.312,0.652,9.979C430.951,371.141,426.359,380.324,416.438,383.896z"/>
		<path fill="#120200" d="M291.628,390.529c-5.868-1.871-14.712-6.066-21.175,1.701c-1.871,2.238-0.085-0.284-1.814,2.777
			c2.579,2.835,6.292,6.265,12.642,5.301C288.766,399.146,288.708,395.49,291.628,390.529z M295.144,375.25
			c-3.317,1.843-2.665,3.146-6.86,4.195c-6.123,1.531-6.831-1.219-10.743-0.906c-6.832,0.538-4.507,6.888-18.057,2.012
			c3.798,9.156,21.487,4.819,29.991,1.503C294.832,379.956,294.491,380.664,295.144,375.25z M294.888,351.921
			c3.005-23.13-41.272-24.888-45.042-2.494c-1.956,11.622,8.391,18.681,20.693,18.454
			C281.112,367.682,293.669,361.304,294.888,351.921z M255.118,325.843c-1.899,4.11-2.041,2.862,1.531,5.896
			c1.049-1.729,3.175,2.778,0.992-4.195C257.074,325.701,255.401,325.984,255.118,325.843z M281.65,322.526
			c-4.082,5.839-0.113,5.697,0,5.867c1.502-0.992,2.154,1.984,2.353-2.806C284.173,321.591,282.302,323.036,281.65,322.526z
			 M248.343,340.895c2.863-1.502,1.899-0.822,4.054-2.523c-4.564-19.53,0.482-14.938,6.321-16.497l-2.58-5.812l-6.066-0.708
			l4.564-2.977c-25.909-7.427-19.474,28.091-8.504,34.214L248.343,340.895z M288.992,312.463c-5.018-0.68-4.28-2.013-9.553-0.227
			l-1.333,4.961c0.369,0.198,0.851,0.396,1.134,0.51c18,6.859,1.36,15.336,13.294,16.583l2.552,5.697
			c13.039-7.767,4.025-45.127-14.684-31.124C283.238,310.848,285.222,309.77,288.992,312.463z M304.611,369.524l-7.2,0.481
			l-0.284,11.736c-2.098,18.68-18.737,32.343-34.809,10.402c-3.26-4.479-5.046-10.856-8.447-15.363
			c-15.279,5.499-12.444-1.502-18.17-8.136l-1.446-1.275c-0.085-0.085-2.353-1.474-2.522-1.587c-2.069-1.729-2.58-1.814-3.316-5.557
			c-1.191-5.726,1.36-9.609,2.891-12.954c7.965,3.288,2.381,5.981,14.797,8.277c-1.304-13.38-11.055-5.585-11.962-27.241
			c-0.567-14.258,4.536-21.571,18.992-19.502c7.625,9.949,7.285,8.135,9.298,23.329l14.116-2.211
			c-4.677-39.345,27.071-33.534,26.873-3.005c-0.086,16.072-6.293,10.232-4.989,21.118c6.689-2.523,5.414-5.414,9.638-11.367
			c7.37,2.098,10.97,8.702,7.029,16.583C310.706,362.069,314.391,367.625,304.611,369.524z"/>
		<path fill="#F7B861" d="M385.71,528.123c-2.664-6.264-22.535-14.201-28.262-14.684c-8.078-0.709-3.117,0.086-4.932,1.248
			C363.997,517.748,376.895,525.798,385.71,528.123z M412.951,500.626c-1.701,15.363-20.692,25.059-31.635,32.967
			c-15.618,11.34-44.391,10.148-34.554-13.719C370.375,462.671,416.069,472.564,412.951,500.626z"/>
		<path fill="#8C4826" d="M416.438,477.013c-17.546-19.926-41.017-14.91-54.851-2.039c-6.661,6.207-11.65,12.33-16.242,22.648
			c-2.551,5.754-3.26,8.191-6.265,13.18l-6.235,12.359c-5.84-22.535-2.438-22.309,6.235-41.555
			c32.259-71.661,78.832-35.803,78.208-8.617c-0.142,6.717,0.511-3.686-0.255,2.098c-0.028,0.197-0.255,1.162-0.283,0.963
			C416.721,475.88,416.58,476.703,416.438,477.013z"/>
		<path fill="#8C4826" d="M262.517,569.933c7.342,1.275,17.943,9.525,34.214-9.779c12.614-14.994,9.921-25.313,8.249-37.189
			c15.534,2.777,9.865,19.049,7.682,32.258c-2.154,12.982-1.474,25.285-8.929,35.547c-6.491,8.957-17.547,15.08-31.72,9.75
			C260.192,596.07,260.702,584.22,262.517,569.933z"/>
		<path fill="#E60012" d="M370.007,382.11c-7.739,4.025-13.21,5.584-20.41,9.978c-3.231,1.984-6.689,4.422-8.929,6.378
			c-3.799,3.317-5.472,5.159-9.071,7.455c1.475,5.301,4.848,8.249,6.576,13.408c-6.066-2.522-9.949-15.193-20.891-28.091
			c16.525-15.988,10.771-17.632,17.83-21.997c18.396-11.367,5.669-12.671,25.738-14.4
			C367.71,361.814,370.177,370.715,370.007,382.11z"/>
		<path fill="#FCD9B5" d="M294.888,351.921c-1.219,9.383-13.776,15.761-24.35,15.96c-12.302,0.227-22.649-6.832-20.693-18.454
			C253.616,327.033,297.893,328.791,294.888,351.921z"/>
		<path fill="#E60012" d="M229.323,432.908c-2.466,3.74-8.844,6.18-13.691,8.645c-25.086,12.785-27.496,1.361-31.634-3.203
			c28.856-2.125,38.381-4.875,36.085-35.546c9.468-0.198,7.285-0.142,12.813-4.733l11.452,4.62
			c-1.56,8.901-5.925,35.236-8.051,40.394c-5.357-6.832,3.09-18.566,0.907-25.824C227.055,416.693,234.68,424.828,229.323,432.908z"
			/>
		<path fill="#E60012" d="M318.671,305.036c-19.672,1.616-7.512-10.885-18.396-17.603c-4.706-2.891-9.638-2.239-14.003-0.284
			c-8.788,3.884-3.997,1.899-14.372,1.134c-13.408-0.992-16.101,2.552-21.855,4.366c-10.63,3.316-22.96-10.46-22.479,20.381
			c-3.572,2.607-5.103,4.79-10.999,4.365c5.839-21.317,20.239-35.15,44.306-39.146c12.897-2.154,26.476,0.028,36.595,5.045
			C305.546,287.292,315.524,296.844,318.671,305.036z"/>
		<path fill="#F7B861" d="M416.494,492.179c-10.063-26.021-46.715-23.896-64.715,13.266c-2.494,5.188-4.139,7.342-6.463,11.566
			c-3.316,6.037-2.722,11.594-3.997,14.145c-6.377-11.338,6.576-34.355,14.202-44.221
			C382.933,451.417,421.994,474.662,416.494,492.179z"/>
		<path fill="#005BAC" d="M258.491,429.875c-23.074-3.715-17.178,24.434-8.05,26.9C262.29,459.949,272.183,445.38,258.491,429.875z
			 M248.315,404.362c15.392,2.948,10.261,9.071,15.874,26.192c3.43,10.545,5.471,23.84-4.28,29.027
			C234.085,473.273,240.265,418.648,248.315,404.362z"/>
		<path fill="#FDFDFD" d="M276.718,273.827l3.855-3.401c-2.92-6.973-8.787-12.558-13.096-18.028l-8.05,8.107
			c-3.26-2.154-5.357-3.685-8.334-5.471c-4.082,4.563-5.953,12.897-8.646,19.077l5.046,4.082l-5.556,1.247
			c-10.857-14.4,0.765-30.926,16.441-32.485c16.243-1.615,29.537,10.602,24.35,27.071L276.718,273.827z"/>
		<path fill="#FCD9B5" d="M332.815,366.406c0.822-8.021-0.453-8.362-0.963-14.797c-0.369-4.705,1.587-9.496,1.813-14.967
			l6.548-3.146l-6.661-0.255l-1.389-8.136c11.31-1.417,16.355,7.455,15.731,18.312C347.216,354.813,339.676,362.268,332.815,366.406
			z"/>
		<path fill="#005BAC" d="M318.331,442.687c-9.979-3.6-10.063-15.166-11.707-26.901c-2.098-15.081-5.103-15.647,8.334-21.827
			c6.236,8.986,15.533,20.466,18.736,35.007l-4.167-6.83c-9.071-16.867-23.726-5.529-17.858,9.553
			C314.277,438.435,316.545,434.835,318.331,442.687z"/>
		<path fill="#F7B861" d="M316.999,526.648c7.369,2.609,7.284,4.791,7.313,14.23c0.028,8.93,0.34,11.027-4.818,15.307
			c1.785,17.887,0.312,41.018-19.843,46.178c6.944-8.08,12.529-16.811,14.627-32.713c1.077-8.191,1.134-12.953,2.948-21.004
			C319.153,540.085,319.011,535.181,316.999,526.648z"/>
		<path fill="#E60012" d="M276.718,273.827l-3.374,0.085l-5.131-12.756c-5.13,2.806-3.118,3.798-7.398,6.945
			c-2.721-1.445-4.535-3.062-7.738-4.677l-2.92,13.748l-2.664,1.021l-5.046-4.082c2.693-6.18,4.563-14.514,8.646-19.077
			c2.977,1.786,5.074,3.316,8.334,5.471l8.05-8.107c4.309,5.471,10.176,11.055,13.096,18.028L276.718,273.827z"/>
		<path fill="#FFF702" d="M254.608,450.964c2.438-1.418,7.654-2.949,3.43-11.736L254.608,450.964z M255.26,432.029
			c11.055,7.086,8.136,21.373-0.283,22.195c-11.424,1.133-11.906-14.6-5.5-21.742L255.26,432.029z"/>
		<path fill="#E60012" d="M263.707,412.214c15.194,2.977,19.928,5.67,33.619-4.224c2.862-2.069,0.368-0.765,4.479-2.466l1.36,10.488
			c-13.776,0.396-25.086,3.373-36.595,7.512C264.444,419.188,263.424,417.175,263.707,412.214z"/>
		<path fill="#FDFDFD" d="M292.535,334.29c4.649-5.925,2.608-15.108-2.438-20.523c1.729-2.862,2.041-2.381-1.105-1.304
			c-3.77-2.693-5.754-1.615-8.589-3.6c18.709-14.003,27.723,23.357,14.684,31.124L292.535,334.29z"/>
		<path fill="#FDFDFD" d="M250.072,315.354c-8.135,3.656-8.617,12.926-4.847,20.579c-0.142,2.098-2.183-1.134,0.652,2.863
			c1.928,2.721,0.114,0.652,2.466,2.098l-2.211,5.697c-10.97-6.123-17.405-41.641,8.504-34.214L250.072,315.354z"/>
		<path fill="#FDFDFD" d="M273.345,273.912l-23.188,3.26l2.92-13.748c3.203,1.615,5.018,3.231,7.738,4.677
			c4.281-3.146,2.268-4.139,7.398-6.945L273.345,273.912z"/>
		<path fill="#8C4826" d="M324.737,347.754c-3.289-4.79-1.984-3.741-0.851-9.723c-11.056-5.98-2.722-7.767,0.283-21.628l2.239,3.005
			c2.863,5.272,4.167,17.857,3.203,22.932C328.45,348.236,328.082,347.046,324.737,347.754z"/>
		<path fill="#FFF702" d="M323.546,434.779c-4.62-3.602-2.607-4.564-6.746-8.619c-0.17,8.193,3.288,7.57,5.272,11.736
			c-7.285-3.656-12.444-12.217-5.669-20.523c9.864-1.899,12.273,5.046,12.982,14.316L323.546,434.779z"/>
		<path fill="#E60012" d="M268.64,395.008c1.729-3.062-0.057-0.539,1.814-2.777c6.463-7.768,15.307-3.572,21.175-1.701
			c-2.92,4.961-2.863,8.617-10.347,9.779C274.932,401.272,271.219,397.843,268.64,395.008z"/>
		<path fill="#120200" d="M255.26,432.029l-5.783,0.453c-6.406,7.143-5.924,22.875,5.5,21.742
			C263.396,453.402,266.315,439.115,255.26,432.029z M258.491,429.875c13.691,15.506,3.799,30.074-8.05,26.9
			C241.313,454.308,235.417,426.16,258.491,429.875z"/>
		<path fill="#FDFDFD" d="M224.674,398.154c-1.275-1.701-1.219,1.814-2.438-5.074c-0.709-3.826,0-3.685,0.595-6.803
			c1.247-6.435,0.539-7.087,4.621-10.545C236.324,379.672,235.219,395.178,224.674,398.154z"/>
		<path fill="#8C4826" d="M222.945,356.514c-9.241-7.087-9.893,0.085-9.893-24.719l10.063,12.161
			C225.836,349.625,220.224,346.507,222.945,356.514z"/>
		<path fill="#FDFDFD" d="M295.144,375.25c-0.652,5.414-0.312,4.706-5.669,6.804c-8.504,3.316-26.192,7.653-29.991-1.503
			c13.55,4.876,11.225-1.474,18.057-2.012c3.912-0.313,4.621,2.438,10.743,0.906C292.479,378.396,291.827,377.093,295.144,375.25z"
			/>
		<path fill="#120200" d="M385.71,528.123c-8.815-2.324-21.713-10.375-33.193-13.436c1.814-1.162-3.146-1.957,4.932-1.248
			C363.175,513.921,383.046,521.859,385.71,528.123z"/>
		<path fill="#FCD9B5" d="M210.784,349.597l-13.323-1.021c2.919-4.365,4.762-5.357,11.679-5.811L210.784,349.597z"/>
		<path fill="#120200" d="M408.388,353.311c-0.228,0.879,0.992,6.207-7.881,3.486c-5.697-1.758-2.239-1.049-3.685-2.098
			C400.818,350.986,403.285,349.483,408.388,353.311z"/>
		<path fill="#120200" d="M400.422,340.157c0.482,5.131-2.977,5.131-9.185,6.066c0.851-3.118,1.758-6.435,5.896-6.888
			C403.881,338.599,397.729,339.052,400.422,340.157z"/>
		<path fill="#120200" d="M387.666,333.354l0.652,2.069c-0.397,3.062,0.964,0.481-0.822,2.834c-2.154,2.835-2.92,1.786-4.706,1.39
			C381.26,334.658,382.054,331.823,387.666,333.354z"/>
		<path fill="#271917" d="M254.608,450.964l3.43-11.736C262.262,448.015,257.046,449.546,254.608,450.964z"/>
		<path fill="#FDFDFD" d="M281.65,328.394c-0.113-0.17-4.082-0.028,0-5.867c0.652,0.51,2.523-0.936,2.353,3.062
			C283.805,330.378,283.153,327.401,281.65,328.394z"/>
		<path fill="#FDFDFD" d="M256.649,331.738c-3.572-3.033-3.43-1.785-1.531-5.896c0.283,0.142,1.956-0.142,2.522,1.7
			C259.824,334.517,257.698,330.01,256.649,331.738z"/>
		<path fill="#796659" d="M297.127,381.742l0.284-11.736l7.2-0.481c-3.261,2.522-1.475,1.53-6.265,0.766L297.127,381.742z"/>
		<path fill="#254A91" d="M335.905,422.703c5.584,1.303,2.297-0.256,4.819,3.174C335.226,425.197,338.088,428.144,335.905,422.703z"
			/>
	</g>
</g>
</svg>
